<svg width="831" height="654" viewBox="0 0 831 654" fill="none" xmlns="http://www.w3.org/2000/svg">
<path d="M0.5 75.5H421.5V646.5H20C9.23045 646.5 0.5 637.77 0.5 627V75.5Z" fill="#DB092C" stroke="black"/>
<mask id="path-2-inside-1_2_68" fill="white">
<path fill-rule="evenodd" clip-rule="evenodd" d="M8 0C3.58172 0 0 3.58172 0 8V74V77V151H213.639C218.989 151 224.115 148.857 227.873 145.049L295.039 77H440V8C440 3.58172 436.418 0 432 0H8Z"/>
</mask>
<path fill-rule="evenodd" clip-rule="evenodd" d="M8 0C3.58172 0 0 3.58172 0 8V74V77V151H213.639C218.989 151 224.115 148.857 227.873 145.049L295.039 77H440V8C440 3.58172 436.418 0 432 0H8Z" fill="#DB092C"/>
<path d="M0 151H-1V152H0V151ZM227.873 145.049L228.585 145.752L228.585 145.752L227.873 145.049ZM295.039 77V76H294.621L294.327 76.2975L295.039 77ZM440 77V78H441V77H440ZM1 8C1 4.13401 4.13401 1 8 1V-1C3.02944 -1 -1 3.02944 -1 8H1ZM1 74V8H-1V74H1ZM1 77V74H-1V77H1ZM1 151V77H-1V151H1ZM213.639 150H0V152H213.639V150ZM227.162 144.347C223.592 147.964 218.721 150 213.639 150V152C219.256 152 224.639 149.75 228.585 145.752L227.162 144.347ZM294.327 76.2975L227.162 144.347L228.585 145.752L295.751 77.7025L294.327 76.2975ZM440 76H295.039V78H440V76ZM439 8V77H441V8H439ZM432 1C435.866 1 439 4.13401 439 8H441C441 3.02944 436.971 -1 432 -1V1ZM8 1H432V-1H8V1Z" fill="black" mask="url(#path-2-inside-1_2_68)"/>
<mask id="path-4-inside-2_2_68" fill="white">
<path d="M440 151H831V613C831 624.046 822.046 633 811 633H440V151Z"/>
</mask>
<path d="M440 151H831V613C831 624.046 822.046 633 811 633H440V151Z" fill="#DB092C"/>
<path d="M440 151H831H440ZM832 613C832 624.598 822.598 634 811 634H439L441 632H811C821.493 632 830 623.493 830 613H832ZM439 634V151H441V632L439 634ZM832 151V613C832 624.598 822.598 634 811 634V632C821.493 632 830 623.493 830 613V151H832Z" fill="black" mask="url(#path-4-inside-2_2_68)"/>
<path d="M440 75H531.456L610 151H440V75Z" fill="#DB092C"/>
<rect x="115.5" y="507.5" width="106" height="69" rx="7.5" fill="#4FAE5D" stroke="black"/>
<circle cx="60" cy="507" r="22" fill="#002E2A"/>
<circle cx="88" cy="86" r="49.5" fill="#E0E0E0" stroke="black"/>
<circle cx="88.5" cy="86.5" r="38.5" fill="#28ABFD"/>
<circle cx="758" cy="463" r="19.5" fill="#F5DA2D" stroke="black"/>
<circle cx="155" cy="32" r="9.5" fill="#DE0A2C" stroke="black"/>
<circle cx="191" cy="32" r="9.5" fill="#F5DA2D" stroke="black"/>
<circle cx="227" cy="32" r="9.5" fill="#4FAE5D" stroke="black"/>
<rect x="107.5" y="478.5" width="47" height="8" rx="4" fill="#DE0A2C" stroke="black"/>
<rect x="186.5" y="476.5" width="47" height="8" rx="4" fill="#176A9F" stroke="black"/>
<rect x="676.5" y="405.5" width="47" height="8" rx="4" fill="#002E2A" stroke="black"/>
<rect x="730.5" y="405.5" width="47" height="8" rx="4" fill="#002E2A" stroke="black"/>
<mask id="path-19-inside-3_2_68" fill="white">
<path d="M254 520C254 517.791 255.791 516 258 516H292V544H258C255.791 544 254 542.209 254 540V520Z"/>
</mask>
<path d="M254 520C254 517.791 255.791 516 258 516H292V544H258C255.791 544 254 542.209 254 540V520Z" fill="#002E2A"/>
<path d="M253 520C253 517.239 255.239 515 258 515H292V517H258C256.343 517 255 518.343 255 520H253ZM292 545H258C255.239 545 253 542.761 253 540H255C255 541.657 256.343 543 258 543H292V545ZM258 545C255.239 545 253 542.761 253 540V520C253 517.239 255.239 515 258 515V517C256.343 517 255 518.343 255 520V540C255 541.657 256.343 543 258 543V545ZM292 516V544V516Z" fill="black" mask="url(#path-19-inside-3_2_68)"/>
<rect x="292" y="516" width="28" height="27" fill="#002E2A"/>
<mask id="path-22-inside-4_2_68" fill="white">
<path d="M292 543H320V577C320 579.209 318.209 581 316 581H296C293.791 581 292 579.209 292 577V543Z"/>
</mask>
<path d="M292 543H320V577C320 579.209 318.209 581 316 581H296C293.791 581 292 579.209 292 577V543Z" fill="#002E2A"/>
<path d="M292 543H320H292ZM321 577C321 579.761 318.761 582 316 582H296C293.239 582 291 579.761 291 577H293C293 578.657 294.343 580 296 580H316C317.657 580 319 578.657 319 577H321ZM296 582C293.239 582 291 579.761 291 577V543H293V577C293 578.657 294.343 580 296 580V582ZM321 543V577C321 579.761 318.761 582 316 582V580C317.657 580 319 578.657 319 577V543H321Z" fill="black" mask="url(#path-22-inside-4_2_68)"/>
<mask id="path-24-inside-5_2_68" fill="white">
<path d="M292 482C292 479.791 293.791 478 296 478H316C318.209 478 320 479.791 320 482V516H292V482Z"/>
</mask>
<path d="M292 482C292 479.791 293.791 478 296 478H316C318.209 478 320 479.791 320 482V516H292V482Z" fill="#002E2A"/>
<path d="M291 482C291 479.239 293.239 477 296 477H316C318.761 477 321 479.239 321 482H319C319 480.343 317.657 479 316 479H296C294.343 479 293 480.343 293 482H291ZM320 516H292H320ZM291 516V482C291 479.239 293.239 477 296 477V479C294.343 479 293 480.343 293 482V516H291ZM316 477C318.761 477 321 479.239 321 482V516H319V482C319 480.343 317.657 479 316 479V477Z" fill="black" mask="url(#path-24-inside-5_2_68)"/>
<mask id="path-26-inside-6_2_68" fill="white">
<path d="M320 516H354C356.209 516 358 517.791 358 520V540C358 542.209 356.209 544 354 544H320V516Z"/>
</mask>
<path d="M320 516H354C356.209 516 358 517.791 358 520V540C358 542.209 356.209 544 354 544H320V516Z" fill="#002E2A"/>
<path d="M320 515H354C356.761 515 359 517.239 359 520H357C357 518.343 355.657 517 354 517H320V515ZM359 540C359 542.761 356.761 545 354 545H320V543H354C355.657 543 357 541.657 357 540H359ZM320 544V516V544ZM354 515C356.761 515 359 517.239 359 520V540C359 542.761 356.761 545 354 545V543C355.657 543 357 541.657 357 540V520C357 518.343 355.657 517 354 517V515Z" fill="black" mask="url(#path-26-inside-6_2_68)"/>
<path d="M309.5 530C309.5 532.595 307.835 534.5 306 534.5C304.165 534.5 302.5 532.595 302.5 530C302.5 527.405 304.165 525.5 306 525.5C307.835 525.5 309.5 527.405 309.5 530Z" fill="#002E2A" stroke="black"/>
<rect x="554.5" y="315.5" width="55" height="37" fill="#28ABFD" stroke="black"/>
<rect x="722.5" y="315.5" width="55" height="37" fill="#28ABFD" stroke="black"/>
<rect x="666.5" y="315.5" width="55" height="37" fill="#28ABFD" stroke="black"/>
<rect x="498.5" y="315.5" width="55" height="37" fill="#28ABFD" stroke="black"/>
<rect x="610.5" y="315.5" width="55" height="37" fill="#28ABFD" stroke="black"/>
<rect x="554.5" y="353.5" width="55" height="37" fill="#28ABFD" stroke="black"/>
<rect x="722.5" y="353.5" width="55" height="37" fill="#28ABFD" stroke="black"/>
<rect x="666.5" y="353.5" width="55" height="37" fill="#28ABFD" stroke="black"/>
<rect x="498.5" y="353.5" width="55" height="37" fill="#28ABFD" stroke="black"/>
<rect x="610.5" y="353.5" width="55" height="37" fill="#28ABFD" stroke="black"/>
<rect x="498.5" y="198.5" width="279" height="88" rx="7.5" fill="#222222" stroke="black"/>
<path d="M63 204.5H350C354.142 204.5 357.5 207.858 357.5 212V447C357.5 451.142 354.142 454.5 350 454.5H85C68.7076 454.5 55.5 441.292 55.5 425V212C55.5 207.858 58.8579 204.5 63 204.5Z" fill="#E0E0E0" stroke="black"/>
<rect x="288" y="406" width="32" height="3" fill="#413A37"/>
<rect x="288" y="429" width="32" height="3" fill="#413A37"/>
<rect x="288" y="413" width="32" height="3" fill="#413A37"/>
<rect x="288" y="421" width="32" height="3" fill="#413A37"/>
<circle cx="186.5" cy="226.5" r="5" fill="#DE0A2C" stroke="black"/>
<circle cx="227.5" cy="226.5" r="5" fill="#DE0A2C" stroke="black"/>
<circle cx="109" cy="429" r="9.5" fill="#DE0A2C" stroke="black"/>
<rect x="95" y="249" width="228" height="150" fill="#222222"/>
<path d="M502 434.5H545.5V478.5H502C497.858 478.5 494.5 475.142 494.5 471V442C494.5 437.858 497.858 434.5 502 434.5Z" fill="#E0E0E0" stroke="black"/>
<path d="M546.5 434.5H590C594.142 434.5 597.5 437.858 597.5 442V471C597.5 475.142 594.142 478.5 590 478.5H546.5V434.5Z" fill="#E0E0E0" stroke="black"/>
<rect x="498.5" y="516.5" width="117" height="45" rx="7.5" fill="#002E2A" stroke="black"/>
<rect x="650.5" y="513.5" width="130" height="45" rx="7.5" fill="#002E2A" stroke="black"/>
<path d="M417 75.5H432C442.77 75.5 451.5 84.2304 451.5 95V630.5H387.5V105C387.5 88.7076 400.708 75.5 417 75.5Z" fill="#DB092C" stroke="black"/>
<path d="M451.5 631.5C451.5 637.503 447.986 642.991 442.196 646.999C436.409 651.006 428.386 653.5 419.5 653.5C410.614 653.5 402.591 651.006 396.804 646.999C391.014 642.991 387.5 637.503 387.5 631.5C387.5 625.497 391.014 620.009 396.804 616.001C402.591 611.994 410.614 609.5 419.5 609.5C428.386 609.5 436.409 611.994 442.196 616.001C447.986 620.009 451.5 625.497 451.5 631.5Z" fill="#89051B" stroke="black"/>
</svg>
